<?xml version="1.0" encoding="iso-8859-1"?>
<!-- Generator: Adobe Illustrator 24.1.0, SVG Export Plug-In . SVG Version: 6.00 Build 0)  -->
<svg version="1.1" id="Capa_1" xmlns="http://www.w3.org/2000/svg" xmlns:xlink="http://www.w3.org/1999/xlink" x="0px" y="0px"
	 viewBox="0 0 512 512" style="enable-background:new 0 0 512 512;" xml:space="preserve">
<g>
	<path d="M509.966,270.37l-17.873-77.566c-3.318-14.404-15.96-24.465-30.743-24.465H15.516C6.96,168.339,0,175.299,0,183.854
		v128.258c0,8.556,6.96,15.516,15.516,15.516h92.789c5.426,9.562,15.695,16.032,27.453,16.032s22.027-6.47,27.453-16.032h193.594
		c5.426,9.562,15.695,16.032,27.453,16.032s22.027-6.47,27.453-16.032h84.773c8.556,0,15.516-6.96,15.516-15.516v-23.86
		C512,282.243,511.316,276.227,509.966,270.37z M135.758,328.661c-9.125,0-16.549-7.423-16.549-16.548
		c0-9.125,7.424-16.548,16.549-16.548s16.548,7.424,16.548,16.548C152.307,321.238,144.883,328.661,135.758,328.661z
		 M135.758,280.564c-17.396,0-31.549,14.152-31.549,31.548c0,0.173,0.01,0.344,0.013,0.516H15.516c-0.285,0-0.516-0.231-0.516-0.516
		V183.854c0-0.284,0.231-0.516,0.516-0.516h445.835c7.754,0,14.385,5.277,16.125,12.833l0.975,4.231H87.66
		c-4.142,0-7.5,3.358-7.5,7.5s3.358,7.5,7.5,7.5h24.566V248.5H47.581c-0.285,0-0.516-0.231-0.516-0.516v-32.064
		c0-0.285,0.231-0.516,0.516-0.516h8.016c4.142,0,7.5-3.358,7.5-7.5s-3.358-7.5-7.5-7.5h-8.016c-8.556,0-15.516,6.96-15.516,15.516
		v32.064c0,8.556,6.96,15.516,15.516,15.516h144.807v49.129h-25.094c0.003-0.172,0.013-0.343,0.013-0.516
		C167.307,294.717,153.154,280.564,135.758,280.564z M400.807,215.403V248.5h-57.146v-33.097H400.807z M415.807,215.403h17.064
		v97.226h-17.064V215.403z M447.871,215.403h17.064v97.226h-17.064V215.403z M192.387,215.403V248.5h-65.162v-33.097H192.387z
		 M207.387,215.403h17.064v97.226h-17.064V215.403z M239.452,215.403h17.064v97.226h-17.064V215.403z M271.516,312.629v-97.226
		h57.145V248.5h-32.578c-4.142,0-7.5,3.358-7.5,7.5s3.358,7.5,7.5,7.5h104.723v21.768c-4.814-2.979-10.483-4.703-16.548-4.703
		c-17.396,0-31.549,14.152-31.549,31.548c0,0.173,0.01,0.344,0.013,0.516H271.516z M384.258,328.661
		c-9.125,0-16.549-7.423-16.549-16.548c0-9.125,7.424-16.548,16.549-16.548s16.548,7.424,16.548,16.548
		C400.807,321.238,393.383,328.661,384.258,328.661z M497,312.113c0,0.285-0.231,0.516-0.516,0.516h-16.548v-97.226h1.972
		l13.441,58.334c1.096,4.754,1.651,9.637,1.651,14.515V312.113z"/>
</g>
<g>
</g>
<g>
</g>
<g>
</g>
<g>
</g>
<g>
</g>
<g>
</g>
<g>
</g>
<g>
</g>
<g>
</g>
<g>
</g>
<g>
</g>
<g>
</g>
<g>
</g>
<g>
</g>
<g>
</g>
</svg>
