<?xml version="1.0" encoding="iso-8859-1"?>
<!-- Generator: Adobe Illustrator 24.1.0, SVG Export Plug-In . SVG Version: 6.00 Build 0)  -->
<svg version="1.1" id="Capa_1" xmlns="http://www.w3.org/2000/svg" xmlns:xlink="http://www.w3.org/1999/xlink" x="0px" y="0px"
	 viewBox="0 0 512 512" style="enable-background:new 0 0 512 512;" xml:space="preserve">
<g>
	<path d="M408.307,204.411c-4.854,0-9.736,0.339-14.511,1.008c-4.102,0.575-6.961,4.366-6.387,8.468
		c0.574,4.102,4.369,6.963,8.468,6.387c4.087-0.572,8.27-0.863,12.43-0.863c48.906,0,88.693,39.788,88.693,88.694
		s-39.788,88.693-88.693,88.693s-88.694-39.788-88.694-88.693c0-28.162,13.028-54.054,35.226-70.78l3.73,19.894
		c1.774,9.465,6.312,18.067,13.121,24.876l31.313,31.313c1.464,1.464,3.384,2.197,5.303,2.197s3.839-0.732,5.303-2.197
		c2.929-2.929,2.929-7.678,0-10.606l-31.313-31.313c-4.663-4.663-7.77-10.553-8.984-17.034l-20.848-111.188l11.324-7.519
		c2.093-1.39,3.351-3.735,3.351-6.248c0-16.155-13.143-29.297-29.297-29.297H309.72c-4.142,0-7.5,3.358-7.5,7.5s3.358,7.5,7.5,7.5
		h28.122c6.604,0,12.178,4.501,13.812,10.597l-11.625,7.719c-2.509,1.666-3.778,4.67-3.223,7.63l9.182,48.969
		c-39.824,14.823-55.593,45.796-70.857,75.781c-6.261,12.3-12.227,24.005-19.715,34.424c-6.57-4.855-14.686-7.732-23.464-7.732
		c-0.088,0-0.175,0.006-0.263,0.007l-5.762-28.812c24.665-10.591,38.688-26.094,52.271-41.118
		c12.288-13.591,23.894-26.428,43.415-36.68c3.667-1.926,5.079-6.46,3.153-10.127c-1.926-3.667-6.46-5.077-10.127-3.153
		c-21.883,11.493-34.94,25.935-47.567,39.9c-12.445,13.765-24.275,26.841-44.161,36.095l-13.304-66.519l12.087-1.511
		c10.124-1.265,17.758-9.913,17.758-20.116c0-11.179-9.094-20.273-20.273-20.273h-36.322c-12.425,0-22.534,10.109-22.534,22.534
		c0,6.46,2.778,12.618,7.621,16.893c4.14,3.654,9.456,5.641,14.916,5.641c0.928,0,1.861-0.058,2.792-0.174l9.03-1.129l6.37,31.852
		l-23.204,19.634c-19.048-19.48-45.492-31.122-74.155-31.122C46.517,204.411,0,250.928,0,308.105s46.517,103.693,103.693,103.693
		c41.051,0,77.328-24.075,94.006-59.881c5.648,9.75,15.33,16.877,26.752,19.079v9.771h-0.516c-4.142,0-7.5,3.358-7.5,7.5
		s3.358,7.5,7.5,7.5h24.048c4.142,0,7.5-3.358,7.5-7.5s-3.358-7.5-7.5-7.5h-8.532v-9.771c18.24-3.516,32.064-19.591,32.064-38.842
		c0-7.524-2.113-14.563-5.773-20.559c9.096-12.071,16.034-25.688,22.756-38.893c14.222-27.938,27.71-54.403,60.303-67.575
		l3.005,16.027c-29.594,19.238-47.194,51.558-47.194,86.95c0,57.177,46.517,103.693,103.694,103.693S512,365.282,512,308.105
		S465.483,204.411,408.307,204.411z M183.792,170.292c-2.172,0.274-4.277-0.377-5.921-1.828c-1.643-1.45-2.548-3.456-2.548-5.648
		c0-4.154,3.38-7.534,7.534-7.534h36.322c2.908,0,5.273,2.365,5.273,5.273c0,2.653-1.985,4.903-4.619,5.232L183.792,170.292z
		 M204.413,232.705l12.567,62.834c-9.938,4.079-17.855,12.088-21.817,22.085l-68.168-12.782c-0.263-1.886-0.751-3.699-1.434-5.416
		l50.478-42.712c5.109,7.211,9.213,15.269,12.049,24.022c1.276,3.94,5.506,6.101,9.447,4.823c3.94-1.277,6.1-5.506,4.823-9.447
		c-3.452-10.655-8.497-20.438-14.818-29.13L204.413,232.705z M103.693,316.637c-4.705,0-8.532-3.828-8.532-8.532
		s3.828-8.532,8.532-8.532s8.532,3.828,8.532,8.532S108.398,316.637,103.693,316.637z M103.693,396.798
		C54.788,396.798,15,357.011,15,308.105s39.788-88.694,88.693-88.694c24.136,0,46.443,9.641,62.675,25.836l-50.497,42.729
		c-3.555-2.159-7.724-3.403-12.178-3.403c-12.976,0-23.532,10.557-23.532,23.532c0,10.354,6.724,19.16,16.032,22.3v9.765
		c0,4.142,3.358,7.5,7.5,7.5s7.5-3.358,7.5-7.5v-9.765c5.562-1.876,10.198-5.774,13.031-10.82l64.967,12.182
		C178.706,369.859,143.867,396.798,103.693,396.798z M239.452,355.543v-23.389c0-4.142-3.358-7.5-7.5-7.5s-7.5,3.358-7.5,7.5v23.389
		c-9.887-3.178-17.064-12.46-17.064-23.389c0-13.545,11.02-24.564,24.564-24.564s24.564,11.02,24.564,24.564
		C256.516,343.083,249.339,352.365,239.452,355.543z"/>
</g>
<g>
</g>
<g>
</g>
<g>
</g>
<g>
</g>
<g>
</g>
<g>
</g>
<g>
</g>
<g>
</g>
<g>
</g>
<g>
</g>
<g>
</g>
<g>
</g>
<g>
</g>
<g>
</g>
<g>
</g>
</svg>
