<?xml version="1.0" encoding="iso-8859-1"?>
<!-- Generator: Adobe Illustrator 24.1.0, SVG Export Plug-In . SVG Version: 6.00 Build 0)  -->
<svg version="1.1" id="Capa_1" xmlns="http://www.w3.org/2000/svg" xmlns:xlink="http://www.w3.org/1999/xlink" x="0px" y="0px"
	 viewBox="0 0 512 512" style="enable-background:new 0 0 512 512;" xml:space="preserve">
<g>
	<path d="M98.025,317.265c1.919,0,3.839-0.732,5.303-2.196l11.336-11.337c2.929-2.929,2.929-7.677,0-10.606
		c-2.929-2.929-7.678-2.929-10.606,0l-11.336,11.337c-2.929,2.929-2.929,7.677,0,10.606
		C94.187,316.533,96.106,317.265,98.025,317.265z"/>
	<path d="M416.688,315.068c1.464,1.464,3.384,2.196,5.303,2.196s3.839-0.732,5.303-2.196c2.929-2.929,2.929-7.678,0-10.606
		l-11.336-11.337c-2.929-2.929-7.678-2.929-10.606,0c-2.929,2.929-2.929,7.678,0,10.606L416.688,315.068z"/>
	<path d="M489.383,238.186c-42.36-19.672-106.078-21.554-118.944-21.731l-60.762-38.667c-17.955-11.426-38.693-17.465-59.974-17.465
		h-71.419c-18.49,0-37.005,4.371-53.543,12.64l-38.043,19.021c-11.461,5.731-23.72,9.442-36.436,11.032l-29.648,3.706
		C8.862,208.19,0,218.229,0,230.072v47.869c0,14.011,9.409,26.485,22.881,30.334l35.431,10.123
		c6.086,19.269,24.126,33.279,45.381,33.279c17.679,0,33.125-9.699,41.328-24.049h229.973c8.203,14.35,23.649,24.049,41.328,24.049
		c26.236,0,47.581-21.345,47.581-47.581s-21.345-47.581-47.581-47.581s-47.581,21.344-47.581,47.581
		c0,2.914,0.277,5.762,0.781,8.532h-219.03c0.504-2.771,0.781-5.619,0.781-8.532c0-26.236-21.345-47.581-47.581-47.581
		c-25.594,0-46.523,20.316-47.532,45.667l-29.159-8.331C19.936,291.833,15,285.291,15,277.941v-22.457h8.532
		c4.142,0,7.5-3.358,7.5-7.5s-3.358-7.5-7.5-7.5H15v-10.412c0-4.294,3.213-7.934,7.474-8.466l29.648-3.706
		c14.408-1.801,28.297-6.007,41.284-12.5l3.421-1.71l13.873,13.809c8.987,8.987,20.936,13.937,33.645,13.937h15.462
		c4.142,0,7.5-3.358,7.5-7.5s-3.358-7.5-7.5-7.5h-15.462c-1.311,0-2.607-0.086-3.889-0.238l8.287-36.604
		c9.582-2.812,19.566-4.272,29.542-4.272h38.152v41.113h-24.564c-4.142,0-7.5,3.358-7.5,7.5s3.358,7.5,7.5,7.5h176.353
		c0.711,0,71.566,0.258,114.84,20.354c2.539,1.179,4.801,2.794,6.734,4.726h-9.347c-4.142,0-7.5,3.358-7.5,7.5s3.358,7.5,7.5,7.5
		h16.412c0.081,0.812,0.136,1.628,0.136,2.456v26.612c0,7.43-3.27,12.045-8.532,12.045c-4.142,0-7.5,3.358-7.5,7.5
		s3.358,7.5,7.5,7.5c6.642,0,12.677-2.733,16.995-7.696c4.276-4.917,6.537-11.607,6.537-19.349v-26.612
		C512,258.613,503.122,244.566,489.383,238.186z M416.322,271.516c17.965,0,32.581,14.616,32.581,32.581
		s-14.616,32.581-32.581,32.581s-32.581-14.616-32.581-32.581S398.357,271.516,416.322,271.516z M103.693,271.516
		c17.965,0,32.581,14.616,32.581,32.581s-14.616,32.581-32.581,32.581s-32.581-14.616-32.581-32.581S85.729,271.516,103.693,271.516
		z M126.259,210.967c-1.761-1.18-3.42-2.541-4.953-4.074l-10.295-10.295l20.438-10.219c0.14-0.07,0.283-0.135,0.423-0.204
		L126.259,210.967z M231.436,175.322h18.267c18.423,0,36.377,5.229,51.921,15.12l40.847,25.994H231.436V175.322z"/>
	<path d="M175.839,280.564c-4.142,0-7.5,3.358-7.5,7.5s3.358,7.5,7.5,7.5h168.338c4.142,0,7.5-3.358,7.5-7.5s-3.358-7.5-7.5-7.5
		H175.839z"/>
</g>
<g>
</g>
<g>
</g>
<g>
</g>
<g>
</g>
<g>
</g>
<g>
</g>
<g>
</g>
<g>
</g>
<g>
</g>
<g>
</g>
<g>
</g>
<g>
</g>
<g>
</g>
<g>
</g>
<g>
</g>
</svg>
