<?xml version="1.0" encoding="iso-8859-1"?>
<!-- Generator: Adobe Illustrator 24.1.0, SVG Export Plug-In . SVG Version: 6.00 Build 0)  -->
<svg version="1.1" id="Capa_1" xmlns="http://www.w3.org/2000/svg" xmlns:xlink="http://www.w3.org/1999/xlink" x="0px" y="0px"
	 viewBox="0 0 512 512" style="enable-background:new 0 0 512 512;" xml:space="preserve">
<g>
	<path d="M504.5,340.686h-98.317c1.034-2.647,1.608-5.523,1.608-8.532c0-12.976-10.557-23.532-23.532-23.532
		c-12.976,0-23.533,10.557-23.533,23.532c0,3.009,0.574,5.885,1.608,8.532h-20.28c1.034-2.647,1.608-5.523,1.608-8.532
		c0-12.976-10.557-23.532-23.532-23.532s-23.532,10.557-23.532,23.532c0,3.009,0.574,5.885,1.608,8.532H149.667
		c1.034-2.647,1.608-5.523,1.608-8.532c0-12.976-10.557-23.532-23.533-23.532c-12.976,0-23.532,10.557-23.532,23.532
		c0,3.009,0.574,5.885,1.608,8.532h-20.28c1.034-2.647,1.608-5.523,1.608-8.532c0-12.976-10.557-23.532-23.532-23.532
		s-23.532,10.557-23.532,23.532c0,3.009,0.574,5.885,1.608,8.532H7.5c-4.142,0-7.5,3.358-7.5,7.5s3.358,7.5,7.5,7.5h497
		c4.142,0,7.5-3.358,7.5-7.5S508.642,340.686,504.5,340.686z M375.726,332.153c0-4.705,3.828-8.532,8.533-8.532
		c4.705,0,8.532,3.827,8.532,8.532c0,4.705-3.828,8.532-8.532,8.532C379.553,340.686,375.726,336.858,375.726,332.153z
		 M311.597,332.153c0-4.705,3.828-8.532,8.532-8.532s8.532,3.827,8.532,8.532c0,4.705-3.828,8.532-8.532,8.532
		S311.597,336.858,311.597,332.153z M119.209,332.153c0-4.705,3.828-8.532,8.532-8.532c4.705,0,8.533,3.827,8.533,8.532
		c0,4.705-3.828,8.532-8.533,8.532C123.037,340.686,119.209,336.858,119.209,332.153z M55.081,332.153
		c0-4.705,3.828-8.532,8.532-8.532s8.532,3.827,8.532,8.532c0,4.705-3.828,8.532-8.532,8.532S55.081,336.858,55.081,332.153z"/>
	<path d="M7.5,236.476c-4.142,0-7.5,3.358-7.5,7.5c0,4.143,3.358,7.5,7.5,7.5h304.611c4.142,0,7.5-3.357,7.5-7.5
		c0-4.142-3.358-7.5-7.5-7.5h-24.563v-33.097h41.611c7.312,0,14.19,3.222,18.871,8.839l19.509,23.412
		c0.099,0.118,0.21,0.252,0.071,0.549c-0.139,0.297-0.313,0.297-0.467,0.297h-22.97c-4.142,0-7.5,3.358-7.5,7.5
		c0,4.143,3.358,7.5,7.5,7.5h22.97c6.086,0,11.47-3.423,14.051-8.935c2.582-5.512,1.765-11.839-2.131-16.515l-19.509-23.412
		c-7.54-9.047-18.618-14.236-30.395-14.236H7.5c-4.142,0-7.5,3.358-7.5,7.5c0,4.143,3.358,7.5,7.5,7.5h24.564v33.097H7.5z
		 M127.226,236.476v-33.097h65.162v33.097H127.226z M272.548,236.476h-65.161v-33.097h65.161V236.476z M47.064,203.379h65.161
		v33.097H47.064V203.379z"/>
	<path d="M502.133,252.646l-45.376-58.989c-17.987-23.382-46.337-37.342-75.837-37.342H7.5c-4.142,0-7.5,3.358-7.5,7.5
		s3.358,7.5,7.5,7.5h373.419c18.011,0,35.511,6.175,49.556,17.064h-15.207c-5.733,0-10.975,3.14-13.68,8.195
		c-2.705,5.055-2.41,11.158,0.77,15.928l4.718,7.078c13.315,19.972,35.595,31.896,59.599,31.896h15.632l7.935,10.316
		c3.314,4.308,5.487,9.42,6.342,14.765h-8.117c-4.142,0-7.5,3.357-7.5,7.5c0,4.142,3.358,7.5,7.5,7.5H497v8.532
		c0,4.704-3.828,8.532-8.532,8.532h-62.896c-8.402-14.755-24.122-24.049-41.313-24.049h-64.129
		c-17.192,0-32.912,9.293-41.313,24.049h-70.912c-4.142,0-7.5,3.357-7.5,7.5c0,4.142,3.358,7.5,7.5,7.5h75.528
		c2.979,0,5.676-1.764,6.871-4.493c5.2-11.879,16.907-19.556,29.826-19.556h64.129c12.919,0,24.626,7.676,29.826,19.556
		c1.194,2.729,3.891,4.493,6.871,4.493h67.513c12.976,0,23.532-10.557,23.532-23.532v-18.433
		C512,271.221,508.496,260.918,502.133,252.646z M466.676,236.476c-18.977,0-36.592-9.427-47.119-25.217l-4.718-7.077
		c-0.072-0.108-0.171-0.257-0.025-0.53c0.146-0.273,0.325-0.273,0.455-0.273h30.042l25.459,33.097H466.676z"/>
	<path d="M7.5,323.621h19.416c2.979,0,5.676-1.764,6.871-4.493c5.2-11.879,16.907-19.556,29.826-19.556h64.129
		c12.919,0,24.627,7.676,29.827,19.556c1.194,2.729,3.891,4.493,6.871,4.493h11.396c4.142,0,7.5-3.358,7.5-7.5
		c0-4.143-3.358-7.5-7.5-7.5h-6.779c-8.402-14.756-24.122-24.049-41.314-24.049H63.613c-17.192,0-32.912,9.293-41.313,24.049H7.5
		c-4.142,0-7.5,3.357-7.5,7.5C0,320.263,3.358,323.621,7.5,323.621z"/>
</g>
<g>
</g>
<g>
</g>
<g>
</g>
<g>
</g>
<g>
</g>
<g>
</g>
<g>
</g>
<g>
</g>
<g>
</g>
<g>
</g>
<g>
</g>
<g>
</g>
<g>
</g>
<g>
</g>
<g>
</g>
</svg>
