<?xml version="1.0" encoding="iso-8859-1"?>
<!-- Generator: Adobe Illustrator 24.1.0, SVG Export Plug-In . SVG Version: 6.00 Build 0)  -->
<svg version="1.1" id="Capa_1" xmlns="http://www.w3.org/2000/svg" xmlns:xlink="http://www.w3.org/1999/xlink" x="0px" y="0px"
	 viewBox="0 0 512.021 512.021" style="enable-background:new 0 0 512.021 512.021;" xml:space="preserve">
<g>
	<path d="M507.576,277.379c-10.484-10.781-32.828-28.868-64.679-28.868H144.34c-8.702,0-16.883-3.389-23.037-9.542l-61.376-61.376
		c-5.958-5.958-13.881-9.24-22.308-9.24H15.516c-2.489,0-4.815,1.234-6.21,3.295c-1.396,2.061-1.677,4.679-0.753,6.99l27.949,69.874
		H7.5c-4.142,0-7.5,3.358-7.5,7.5c0,4.142,3.358,7.5,7.5,7.5h17.565c-0.657,2.059-1.017,4.25-1.017,6.524
		c0,9.308,5.924,17.518,14.742,20.429c26.549,8.767,94.611,29.158,153.076,29.158h72.672c-0.004,0.172-0.013,0.343-0.013,0.516
		c0,12.976,10.556,23.532,23.532,23.532h48.097c4.142,0,7.5-3.358,7.5-7.5v-32.064c0-4.142-3.358-7.5-7.5-7.5h-30.848
		l-61.116-20.372c-7.316-2.439-14.937-3.675-22.65-3.675h-29.673c-2.841,0-5.438,1.605-6.708,4.146
		c-1.271,2.541-0.997,5.582,0.708,7.854l15.048,20.063h-9.048c-18.751,0-70.745-2.768-148.373-28.402
		c-2.659-0.877-4.445-3.363-4.445-6.186c0-3.597,2.927-6.524,6.524-6.524h397.325c13.424,0,24.873,3.962,34.047,9.048l-12.537,0
		c-4.142,0-7.5,3.358-7.5,7.5s3.358,7.5,7.5,7.5l32.141,0c0.09,0.092,0.186,0.187,0.274,0.278c0.174,0.179,0.257,0.456,0.079,0.639
		c-5.862,6.031-18.589,16.147-37.972,16.147h-90.712c-4.142,0-7.5,3.358-7.5,7.5s3.358,7.5,7.5,7.5h90.712
		c24.898,0,41.216-12.964,48.728-20.692C513.507,292.91,513.472,283.443,507.576,277.379z M288.057,311.606h40.597v17.064h-40.597
		c-4.705,0-8.532-3.827-8.532-8.532S283.352,311.606,288.057,311.606z M221.539,287.559c6.098,0,12.123,0.978,17.907,2.906
		l33.923,11.308c-1.075,0.862-2.073,1.816-2.982,2.85h-50.723l-12.798-17.063H221.539z M52.657,248.511l-26.063-65.159h11.025
		c4.42,0,8.576,1.721,11.701,4.847l60.312,60.312H52.657z"/>
	<path d="M439.923,280.059c0-4.142-3.358-7.5-7.5-7.5h-0.081c-4.142,0-7.46,3.358-7.46,7.5s3.398,7.5,7.541,7.5
		S439.923,284.201,439.923,280.059z"/>
	<path d="M336.072,272.559c-4.142,0-7.459,3.358-7.459,7.5s3.398,7.5,7.54,7.5s7.5-3.358,7.5-7.5s-3.358-7.5-7.5-7.5H336.072z"/>
	<path d="M159.802,272.559c-4.142,0-7.46,3.358-7.46,7.5s3.398,7.5,7.54,7.5s7.5-3.358,7.5-7.5s-3.358-7.5-7.5-7.5H159.802z"/>
	<path d="M368.296,287.559c4.142,0,7.5-3.358,7.5-7.5s-3.358-7.5-7.5-7.5h-0.08c-4.142,0-7.46,3.358-7.46,7.5
		S364.154,287.559,368.296,287.559z"/>
	<path d="M304.008,272.559c-4.142,0-7.46,3.358-7.46,7.5s3.398,7.5,7.54,7.5s7.5-3.358,7.5-7.5s-3.358-7.5-7.5-7.5H304.008z"/>
	<path d="M407.859,280.059c0-4.142-3.358-7.5-7.5-7.5h-0.08c-4.142,0-7.46,3.358-7.46,7.5s3.398,7.5,7.54,7.5
		S407.859,284.201,407.859,280.059z"/>
	<path d="M127.66,272.559c-4.142,0-7.46,3.358-7.46,7.5s3.398,7.5,7.54,7.5s7.5-3.358,7.5-7.5s-3.358-7.5-7.5-7.5H127.66z"/>
</g>
<g>
</g>
<g>
</g>
<g>
</g>
<g>
</g>
<g>
</g>
<g>
</g>
<g>
</g>
<g>
</g>
<g>
</g>
<g>
</g>
<g>
</g>
<g>
</g>
<g>
</g>
<g>
</g>
<g>
</g>
</svg>
